<svg width="36" height="37" viewBox="0 0 36 37" fill="none" xmlns="http://www.w3.org/2000/svg">
<path d="M13.5 33.9167C14.3284 33.9167 15 33.2265 15 32.375C15 31.5236 14.3284 30.8334 13.5 30.8334C12.6716 30.8334 12 31.5236 12 32.375C12 33.2265 12.6716 33.9167 13.5 33.9167Z" stroke="white" stroke-width="3" stroke-linecap="round" stroke-linejoin="round"/>
<path d="M30 33.9167C30.8284 33.9167 31.5 33.2265 31.5 32.375C31.5 31.5236 30.8284 30.8334 30 30.8334C29.1716 30.8334 28.5 31.5236 28.5 32.375C28.5 33.2265 29.1716 33.9167 30 33.9167Z" stroke="white" stroke-width="3" stroke-linecap="round" stroke-linejoin="round"/>
<path d="M1.5 1.54163H7.5L11.52 22.1845C11.6572 22.8943 12.0329 23.5319 12.5813 23.9857C13.1298 24.4394 13.816 24.6805 14.52 24.6666H29.1C29.804 24.6805 30.4902 24.4394 31.0387 23.9857C31.5871 23.5319 31.9628 22.8943 32.1 22.1845L34.5 9.24996H9" stroke="white" stroke-width="3" stroke-linecap="round" stroke-linejoin="round"/>
</svg>
